<?xml version="1.0" standalone="no"?>
<!DOCTYPE svg PUBLIC "-//W3C//DTD SVG 20010904//EN"
 "http://www.w3.org/TR/2001/REC-SVG-20010904/DTD/svg10.dtd">
<svg version="1.0" xmlns="http://www.w3.org/2000/svg"
 width="1280.000000pt" height="959.000000pt" viewBox="0 0 1280.000000 959.000000"
 preserveAspectRatio="xMidYMid meet">
<metadata>
Created by potrace 1.15, written by Peter Selinger 2001-2017
</metadata>
<g transform="translate(0.000000,959.000000) scale(0.100000,-0.100000)"
fill="#000000" stroke="none">
<path d="M6095 9564 l-520 -25 -275 -55 c-959 -193 -870 -171 -1250 -304 -190
-67 -430 -151 -534 -187 -188 -66 -192 -68 -635 -321 l-446 -255 -140 -137
c-77 -75 -255 -248 -396 -384 l-257 -248 -44 -101 c-25 -56 -116 -265 -203
-464 l-157 -361 -97 -12 c-53 -6 -255 -33 -450 -58 l-353 -47 -169 -285 -169
-285 1 -375 0 -375 208 -290 207 -290 339 -183 c187 -101 360 -191 385 -201
27 -10 44 -23 43 -32 -1 -7 -27 -157 -58 -333 l-56 -318 36 -287 c20 -157 49
-387 65 -510 l29 -224 228 -468 228 -468 450 -437 450 -436 570 -286 570 -285
785 -119 785 -118 825 51 825 50 205 55 c113 31 383 105 600 164 l395 109 580
284 c319 156 662 325 763 376 l182 91 503 476 502 477 327 606 c180 333 329
622 332 641 3 19 36 262 72 540 l67 505 -18 143 c-9 80 -13 148 -9 152 5 5
297 164 649 355 547 296 720 391 732 400 2 1 -27 75 -63 164 -77 194 -149 341
-167 341 -6 0 -104 -9 -217 -19 -190 -18 -220 -18 -405 -5 l-200 14 -50 -54
c-233 -252 -520 -556 -525 -556 -3 0 -108 174 -235 386 l-230 386 -338 280
c-185 154 -339 283 -340 287 -2 3 32 175 75 381 103 498 105 465 -34 860 -55
157 -109 308 -120 337 -18 49 -34 64 -379 349 -199 163 -384 309 -412 325 -29
15 -271 126 -538 248 l-485 220 -205 26 c-733 89 -1146 137 -1224 140 -49 2
-324 -7 -610 -21z m-4900 -3719 c105 -15 199 -30 210 -34 17 -7 325 -476 325
-494 0 -14 -232 -357 -241 -357 -5 0 -92 34 -192 75 -182 75 -182 75 -396 233
l-214 157 -89 139 c-48 77 -86 141 -85 143 14 13 456 171 472 167 11 -2 106
-15 210 -29z"/>
</g>
</svg>
